PathFileType  4	(X/Y/Z) C:\Users\antoi\Documents\MyRepositories\mobilecap\ResultsAnalysis
DataRate	CameraRate	NumFrames	NumMarkers	Units	OrigDataRate	OrigDataStartFrame	OrigNumFrames
100.0	100.0	4	51	mm	100.0	1	291
Frame#	Time	r_knee			r_shank_antsup			r_ankle			r_calc			r_5meta			r_toe			L_knee			L_shank_antsup			L_ankle			L_calc			L_5meta			L_toe			r_sh2			r_sh3			r_sh4			L_sh2			L_sh3			r_thigh1			r_thigh2			r_thigh3			r_thigh4			r_thigh5			L_thigh1			L_thigh2			L_thigh3			L_thigh4			r.ASIS			r.PSIS			L.ASIS			L.PSIS			C7			R_Shoulder			L_Shoulder			R_Sternum			L_Sternum			R_humerus			R_elbow_med			R_elbow_lat			R_forearm			R_wrist_radius			R_wrist_ulna			L_humerus			L_elbow_med			L_elbow_lat			L_forearm			L_wrist_radius			L_wrist_ulna			R_HJC			L_HJC			R_HJC_reg			L_HJC_reg			
		X1	Y1	Z1	X2	Y2	Z2	X3	Y3	Z3	X4	Y4	Z4	X5	Y5	Z5	X6	Y6	Z6	X7	Y7	Z7	X8	Y8	Z8	X9	Y9	Z9	X10	Y10	Z10	X11	Y11	Z11	X12	Y12	Z12	X13	Y13	Z13	X14	Y14	Z14	X15	Y15	Z15	X16	Y16	Z16	X17	Y17	Z17	X18	Y18	Z18	X19	Y19	Z19	X20	Y20	Z20	X21	Y21	Z21	X22	Y22	Z22	X23	Y23	Z23	X24	Y24	Z24	X25	Y25	Z25	X26	Y26	Z26	X27	Y27	Z27	X28	Y28	Z28	X29	Y29	Z29	X30	Y30	Z30	X31	Y31	Z31	X32	Y32	Z32	X33	Y33	Z33	X34	Y34	Z34	X35	Y35	Z35	X36	Y36	Z36	X37	Y37	Z37	X38	Y38	Z38	X39	Y39	Z39	X40	Y40	Z40	X41	Y41	Z41	X42	Y42	Z42	X43	Y43	Z43	X44	Y44	Z44	X45	Y45	Z45	X46	Y46	Z46	X47	Y47	Z47	X48	Y48	Z48	X49	Y49	Z49	X50	Y50	Z50	X51	Y51	Z51	

1	0.00000000	-1138.93184	781.23266	-429.29113	-1111.60162	718.14139	-429.87585	-1189.58913	392.87320	-438.37771	-1245.28468	363.05187	-480.76464	-1083.44421	349.86128	-409.60627	-1043.52431	366.99125	-463.92125	-1122.94069	775.39023	-698.70439	-1094.33010	688.44738	-686.86308	-1191.81543	400.68841	-691.39227	-1248.78077	360.75288	-647.00761	-1093.84558	352.36124	-727.18433	-1040.78821	366.90680	-675.99323	-1135.26402	608.21304	-418.38363	-1181.13987	738.07246	-404.46259	-1212.83101	623.46856	-398.74241	-1169.25197	717.35740	-730.79129	-1193.09705	594.92717	-734.06059	-1073.58729	1029.12182	-382.88151	-1076.09281	916.36943	-402.58842	-1139.05335	894.84567	-397.91683	-1186.44915	1029.10693	-387.77986	-1186.98600	916.63179	-415.08990	-1070.50309	1053.28942	-754.48213	-1065.48349	916.13105	-726.45271	-1181.93398	1044.84627	-757.98225	-1180.20849	915.10089	-710.11027	-1027.56342	1231.78721	-455.71798	-1237.60313	1268.45109	-531.81872	-1025.46853	1238.21231	-677.52436	-1236.26941	1269.75621	-613.88043	-1116.71292	1709.74825	-560.27668	-1072.60838	1672.91250	-417.37974	-1071.48341	1673.13155	-697.53235	-1004.79825	1631.89805	-534.84021	-1005.10675	1630.38999	-573.80960	-1044.78046	1559.93667	-361.33123	-1125.34567	1351.40505	-353.22346	-1080.05575	1363.81215	-305.82797	-1005.31790	1305.13016	-312.37439	-937.41893	1178.32594	-333.75132	-959.54859	1167.35307	-304.22820	-1054.05998	1576.87671	-770.36272	-1098.42839	1354.15037	-793.04464	-1057.50353	1381.89435	-834.95064	-975.57662	1309.72477	-830.50418	-907.88174	1201.87643	-810.03068	-928.99452	1188.44475	-839.77101	-1113.16309	1146.88487	-466.11822	-1109.92007	1154.73065	-673.45192	-1100.87502	1167.45018	-488.35314	-1098.49526	1169.77891	-634.77542	
2	0.01000000	-1139.06395	781.16129	-429.24933	-1111.67542	718.07996	-429.80573	-1189.61487	392.86865	-438.30450	-1245.34932	363.00821	-480.67446	-1083.41731	349.86665	-409.54272	-1043.60290	366.95143	-463.86648	-1122.94726	775.29246	-698.71833	-1094.23641	688.38989	-687.01791	-1191.85681	400.65003	-691.40194	-1248.67497	360.81687	-647.22808	-1093.85058	352.37114	-727.17436	-1040.78990	366.92843	-675.96600	-1135.42055	608.02765	-418.33323	-1181.10212	737.77578	-404.19591	-1212.87349	623.45186	-398.67230	-1169.21600	717.28969	-730.79238	-1193.05284	594.89705	-734.10634	-1074.10280	1029.26932	-382.50927	-1076.48549	916.50505	-402.46332	-1139.36726	894.76884	-397.86689	-1186.98962	1028.85275	-387.92077	-1187.33573	916.48035	-415.07998	-1070.85184	1053.22414	-754.56824	-1065.65036	916.18636	-726.50483	-1182.25407	1044.62676	-758.00971	-1180.40830	914.83524	-710.32992	-1027.99925	1231.49277	-455.75291	-1237.92642	1268.78955	-531.65991	-1026.04091	1237.93853	-677.51412	-1236.13060	1270.18035	-614.03055	-1114.34938	1709.62505	-560.82922	-1070.30449	1672.68971	-417.23442	-1069.46686	1672.87872	-697.32427	-1003.07821	1631.44313	-534.95663	-1003.46618	1629.98074	-573.70082	-1042.60831	1559.61177	-361.28652	-1124.61837	1351.61884	-351.94433	-1078.52691	1363.70370	-305.39468	-1003.92278	1304.98704	-312.44297	-936.23975	1177.99071	-334.18502	-958.11958	1167.24771	-304.38452	-1051.96126	1576.78208	-770.27679	-1096.64915	1354.24805	-793.18831	-1055.42474	1382.10612	-835.45807	-973.45799	1309.96902	-830.27030	-905.73090	1202.39998	-808.86364	-926.24803	1189.05827	-840.70538	-1113.81793	1146.84749	-466.14638	-1110.54846	1154.72943	-673.47837	-1101.89960	1167.27059	-488.85917	-1098.70941	1169.74191	-635.23278	
3	0.02000000	-1139.19078	781.10109	-429.25090	-1111.72539	718.05089	-429.75119	-1189.72591	392.77011	-438.35376	-1245.36826	363.01176	-480.64745	-1083.43063	349.90249	-409.50176	-1043.68803	366.95729	-463.85153	-1122.87332	775.16394	-698.69776	-1094.10919	688.28739	-687.11579	-1191.88403	400.61939	-691.40078	-1248.68460	360.80574	-647.24115	-1093.85566	352.38073	-727.17155	-1040.83990	366.93819	-675.96542	-1135.51737	607.89885	-418.28315	-1181.09097	737.67862	-404.08568	-1212.93845	623.37113	-398.63091	-1169.13067	717.21751	-730.76731	-1192.91888	594.91008	-734.24280	-1074.50681	1029.36607	-382.57312	-1076.75452	916.52040	-402.37010	-1139.67765	894.63784	-397.88744	-1187.42100	1028.72253	-387.96738	-1187.68706	916.30199	-415.13419	-1071.16253	1053.12706	-754.43854	-1065.78983	916.16477	-726.54654	-1182.55775	1044.38054	-757.98012	-1180.54992	914.63596	-710.59619	-1028.43089	1231.20835	-455.76133	-1238.23195	1269.28939	-531.50822	-1026.86639	1237.52716	-677.63615	-1236.45350	1270.65001	-614.09115	-1112.37081	1709.74460	-560.42412	-1067.99885	1672.38657	-417.15632	-1067.40735	1672.66714	-697.16577	-1001.30514	1630.92022	-535.00773	-1001.72976	1629.52691	-573.68475	-1040.46717	1559.25984	-361.26983	-1123.54163	1351.55689	-351.19803	-1077.09009	1363.60938	-304.87824	-1002.64744	1304.76184	-312.44879	-935.26061	1177.68883	-334.54040	-956.94207	1166.94322	-304.56446	-1049.80573	1576.70387	-770.05496	-1095.09634	1354.27327	-793.45515	-1053.63079	1382.24857	-835.70246	-971.56269	1310.14484	-830.21709	-903.76715	1202.76280	-808.80539	-924.28498	1189.35854	-840.37888	-1114.61342	1146.90861	-466.10711	-1111.52967	1154.64409	-673.44702	-1102.72803	1167.19914	-488.84338	-1099.57395	1169.61204	-635.28820	
4	0.03000000	-1139.32678	780.99256	-429.29368	-1111.74615	718.02546	-429.71133	-1189.83616	392.64364	-438.41408	-1245.37937	363.01602	-480.63582	-1083.46343	349.92229	-409.49489	-1043.74255	367.02160	-463.86876	-1122.69844	775.04363	-698.71202	-1093.90896	688.15348	-687.14262	-1191.89781	400.60499	-691.40041	-1248.75643	360.75357	-647.13485	-1093.86059	352.39061	-727.17326	-1040.86451	366.96723	-675.97223	-1135.54394	607.83323	-418.25888	-1181.10565	737.64330	-404.09483	-1212.99629	623.29310	-398.64535	-1168.97778	717.16697	-730.79211	-1192.96151	594.82868	-734.11687	-1074.85167	1029.32853	-382.82191	-1076.97478	916.50275	-402.33056	-1139.98036	894.45501	-397.98490	-1187.74212	1028.66204	-387.94322	-1187.98557	916.11665	-415.18412	-1071.44459	1053.01411	-754.22136	-1065.89015	916.06651	-726.65269	-1182.81772	1044.14418	-758.03481	-1180.63248	914.44317	-710.85766	-1028.84573	1230.93175	-455.73573	-1238.56545	1269.86551	-531.41622	-1027.78206	1237.06638	-677.85516	-1236.99261	1271.10019	-614.12879	-1110.45002	1709.92105	-559.67467	-1065.62429	1671.96427	-417.16714	-1065.25090	1672.42618	-696.98691	-999.44759	1630.37236	-534.91836	-999.89047	1629.05510	-573.74615	-1038.34386	1558.80457	-361.34084	-1122.33892	1351.39733	-350.69416	-1075.84107	1363.49893	-304.27287	-1001.58491	1304.40764	-312.30355	-934.56261	1177.33640	-334.77436	-956.07871	1166.49472	-304.66309	-1047.58334	1576.60382	-769.80521	-1093.76556	1354.36425	-794.11908	-1052.02250	1382.40972	-835.87993	-969.98776	1310.23098	-830.31387	-902.15417	1202.90293	-809.13527	-922.90226	1189.41646	-839.64355	-1115.46935	1147.01641	-466.05365	-1112.64577	1154.51581	-673.40596	-1103.49559	1167.21727	-488.57200	-1100.70807	1169.40581	-635.18272	
